g AlphaBat
v -0.02222 0.053722 0.028798
v 5.2E-05 0.058152 0.028798
v 6.8E-05 0.053255 0.179893
v -0.020331 0.049197 0.179893
v 7.3E-05 0.047797 0.430414
v -0.041102 0.041105 0.028798
v -0.018237 0.044155 0.430414
v -0.037624 0.037643 0.179893
v -0.053719 0.022224 0.028798
v -0.03376 0.033783 0.430414
v -0.049179 0.02035 0.179893
v -0.058149 -4.9E-05 0.028798
v -0.044131 0.018261 0.430414
v -0.053236 -4.9E-05 0.179893
v -0.053719 -0.022322 0.028798
v -0.047773 -4.9E-05 0.430414
v -0.049179 -0.020448 0.179893
v -0.041102 -0.041203 0.028798
v -0.044131 -0.018359 0.430414
v -0.037624 -0.037741 0.179893
v -0.02222 -0.05382 0.028798
v -0.03376 -0.033881 0.430414
v -0.020331 -0.049295 0.179893
v 5.2E-05 -0.05825 0.028798
v -0.018237 -0.044253 0.430414
v 6.8E-05 -0.053353 0.179893
v 0.022325 -0.05382 0.028798
v 7.3E-05 -0.047895 0.430414
v 0.020467 -0.049295 0.179893
v 0.041207 -0.041203 0.028798
v 0.018383 -0.044253 0.430414
v 0.03776 -0.037741 0.179893
v 0.053823 -0.022322 0.028798
v 0.033905 -0.033881 0.430414
v 0.049314 -0.020448 0.179893
v 0.058253 -4.9E-05 0.028798
v 0.044277 -0.018359 0.430414
v 0.053372 -4.9E-05 0.179893
v 0.053823 0.022224 0.028798
v 0.047919 -4.9E-05 0.430414
v 0.049314 0.02035 0.179893
v 0.041207 0.041105 0.028798
v 0.044277 0.018261 0.430414
v 0.03776 0.037643 0.179893
v 0.022325 0.053722 0.028798
v 0.033905 0.033783 0.430414
v 0.020467 0.049197 0.179893
v 5.2E-05 0.058152 0.028798
v 0.018383 0.044155 0.430414
v 6.8E-05 0.053255 0.179893
v 7.3E-05 0.047797 0.430414
v 5.2E-05 0.058152 0.028798
v 5.2E-05 0.058782 -0.034737
v 0.022566 0.054304 -0.034737
v 0.022325 0.053722 0.028798
v 0.041652 0.041551 -0.034737
v 0.041207 0.041105 0.028798
v 0.054405 0.022465 -0.034737
v 0.053823 0.022224 0.028798
v 0.058884 -4.9E-05 -0.034737
v 0.058253 -4.9E-05 0.028798
v 0.054405 -0.022563 -0.034737
v 0.053823 -0.022322 0.028798
v 0.041652 -0.041649 -0.034737
v 0.041207 -0.041203 0.028798
v 0.022566 -0.054402 -0.034737
v 0.022325 -0.05382 0.028798
v 5.2E-05 -0.05888 -0.034737
v 5.2E-05 -0.05825 0.028798
v -0.022462 -0.054402 -0.034737
v -0.02222 -0.05382 0.028798
v -0.041548 -0.041649 -0.034737
v -0.041102 -0.041203 0.028798
v -0.054301 -0.022563 -0.034737
v -0.053719 -0.022322 0.028798
v -0.054693 0.009815 -0.034737
v -0.058149 -4.9E-05 0.028798
v -0.054301 0.022465 0.025627
v -0.053719 0.022224 0.028798
v -0.045634 0.031687 -0.034737
v -0.041102 0.041105 0.028798
v -0.022462 0.054304 -0.034737
v -0.02222 0.053722 0.028798
v 5.2E-05 0.058782 -0.034737
v 5.2E-05 0.058152 0.028798
v -0.033676 0.017625 -0.034737
v -0.054301 0.022465 0.025627
v -0.054693 0.009815 -0.034737
v -0.046132 -4.9E-05 -0.034737
v -0.054301 -0.022563 -0.034737
v -0.042616 -0.017723 -0.034737
v -0.041548 -0.041649 -0.034737
v -0.032605 -0.032706 -0.034737
v -0.022462 -0.054402 -0.034737
v -0.032605 0.032608 -0.034737
v -0.054301 0.022465 0.025627
v -0.045634 0.031687 -0.034737
v -0.017622 0.04262 -0.034737
v -0.022462 0.054304 -0.034737
v -0.017622 -0.042718 -0.034737
v 5.2E-05 -0.05888 -0.034737
v 5.2E-05 0.046135 -0.034737
v 5.2E-05 0.058782 -0.034737
v 5.2E-05 -0.046233 -0.034737
v 0.022566 -0.054402 -0.034737
v 0.017726 0.04262 -0.034737
v 0.022566 0.054304 -0.034737
v 0.017726 -0.042718 -0.034737
v 0.041652 -0.041649 -0.034737
v 0.032709 0.032608 -0.034737
v 0.041652 0.041551 -0.034737
v 0.032709 -0.032706 -0.034737
v 0.054405 -0.022563 -0.034737
v 0.042721 0.017625 -0.034737
v 0.054405 0.022465 -0.034737
v 0.042721 -0.017723 -0.034737
v 0.058884 -4.9E-05 -0.034737
v 0.046237 -4.9E-05 -0.034737
v -0.095158 -0.040621 1.679096
v -0.054898 -0.040621 1.700819
v 0.054898 -0.040621 1.700819
v 0.095158 -0.040621 1.679096
v -0.102881 -0.040621 1.65272
v 0.102881 -0.040621 1.65272
v -0.081226 -0.057641 1.573483
v 0.081226 -0.057641 1.573483
v 0.102881 -0.040621 0.42317
v -0.081226 -0.057641 0.507747
v -0.102881 -0.040621 0.42317
v 0.081226 -0.057641 0.507747
v -0.082366 -0.040621 0.382695
v 0.082366 -0.040621 0.382695
v -0.054898 0.048382 1.700819
v 0.054898 -0.040621 1.700819
v -0.054898 -0.040621 1.700819
v 0.054898 0.048382 1.700819
v 0.095158 -0.040621 1.679096
v 0.095158 0.048382 1.679096
v 0.102881 -0.040621 1.65272
v 0.102881 0.048382 1.65272
v 0.102881 0.048382 0.42317
v 0.102881 -0.040621 0.42317
v 0.082366 -0.040621 0.382695
v 0.082366 0.048382 0.382695
v -0.082366 -0.040621 0.382695
v -0.082366 0.048382 0.382695
v -0.102881 -0.040621 0.42317
v -0.102881 0.048382 0.42317
v -0.102881 -0.040621 1.65272
v -0.102881 0.048382 1.65272
v -0.095158 -0.040621 1.679096
v -0.095158 0.048382 1.679096
v -0.054898 -0.040621 1.700819
v -0.054898 0.048382 1.700819
v 0.095158 0.048382 1.679096
v 0.054898 0.048382 1.700819
v -0.054898 0.048382 1.700819
v -0.095158 0.048382 1.679096
v 0.102881 0.048382 1.65272
v -0.102881 0.048382 1.65272
v -0.102881 0.048382 0.42317
v 0.102881 0.048382 0.42317
v 0.082366 0.048382 0.382695
v -0.082366 0.048382 0.382695
v 0.265409 0.046346 0.258155
v 0.128151 -0.085508 0.284076
v 0.265409 -0.047474 0.258155
v 0.128151 0.084379 0.284076
v -0.128151 -0.085508 0.284076
v -0.128151 0.084379 0.284076
v -0.265409 -0.047474 0.258155
v -0.265409 0.046346 0.258155
v 0.265409 0.046346 0.331597
v 0.265409 0.046346 0.258155
v 0.265409 -0.047474 0.258155
v 0.265409 -0.047474 0.331597
v 0.128151 -0.085508 0.37663
v 0.128151 0.084379 0.37663
v 0.128151 0.084379 0.513897
v 0.128151 -0.085508 0.513897
v 0.10885 0.071586 0.585072
v 0.10885 -0.072714 0.585072
v -0.128151 -0.085508 0.37663
v -0.265409 -0.047474 0.258155
v -0.265409 -0.047474 0.331597
v -0.128151 -0.085508 0.284076
v 0.128151 -0.085508 0.37663
v 0.128151 -0.085508 0.284076
v 0.265409 -0.047474 0.331597
v 0.265409 -0.047474 0.258155
v 0.128151 -0.085508 0.513897
v -0.128151 -0.085508 0.513897
v 0.10885 -0.072714 0.585072
v -0.10885 -0.072714 0.585072
v 0.128151 0.084379 0.37663
v 0.265409 0.046346 0.258155
v 0.265409 0.046346 0.331597
v 0.128151 0.084379 0.284076
v -0.128151 0.084379 0.37663
v -0.128151 0.084379 0.284076
v -0.265409 0.046346 0.331597
v -0.265409 0.046346 0.258155
v -0.128151 0.084379 0.513897
v 0.128151 0.084379 0.513897
v -0.10885 0.071586 0.585072
v 0.10885 0.071586 0.585072
v -0.265409 -0.047474 0.331597
v -0.265409 -0.047474 0.258155
v -0.265409 0.046346 0.258155
v -0.265409 0.046346 0.331597
v -0.128151 0.084379 0.37663
v -0.128151 -0.085508 0.37663
v -0.128151 -0.085508 0.513897
v -0.128151 0.084379 0.513897
v -0.10885 -0.072714 0.585072
v -0.10885 0.071586 0.585072
v -0.10885 -0.072714 0.585072
v -0.10885 0.071586 0.585072
v 0.10885 0.071586 0.585072
v 0.10885 -0.072714 0.585072
vt 0.268268 0.262208
vt 0.253957 0.263296
vt 0.262209 0.332539
vt 0.27538 0.331812
vt 0.27066 0.447815
vt 0.282706 0.2612
vt 0.282557 0.447653
vt 0.288617 0.331201
vt 0.297168 0.259722
vt 0.294505 0.447523
vt 0.301909 0.330708
vt 0.311805 0.260075
vt 0.3065 0.447427
vt 0.31493 0.330347
vt 0.326313 0.259933
vt 0.318533 0.447364
vt 0.328257 0.330082
vt 0.340715 0.259878
vt 0.330597 0.447336
vt 0.341597 0.329926
vt 0.355059 0.259913
vt 0.342677 0.447339
vt 0.354941 0.329878
vt 0.369369 0.260044
vt 0.354774 0.447377
vt 0.368282 0.329933
vt 0.383661 0.260277
vt 0.366878 0.447451
vt 0.381616 0.330091
vt 0.397941 0.260616
vt 0.378983 0.44756
vt 0.394939 0.330351
vt 0.412214 0.261066
vt 0.39108 0.447705
vt 0.408245 0.330712
vt 0.426481 0.261629
vt 0.403161 0.447885
vt 0.421534 0.331174
vt 0.440744 0.262302
vt 0.415213 0.448103
vt 0.434789 0.331744
vt 0.455006 0.263094
vt 0.42723 0.448355
vt 0.448013 0.332417
vt 0.469273 0.264006
vt 0.439206 0.448639
vt 0.461198 0.333195
vt 0.483564 0.26504
vt 0.451131 0.448954
vt 0.474349 0.33408
vt 0.46307 0.449298
vt 0.194357 0.235979
vt 0.196291 0.206839
vt 0.185024 0.205482
vt 0.183262 0.234572
vt 0.173752 0.204259
vt 0.172186 0.233332
vt 0.162474 0.203184
vt 0.161113 0.232256
vt 0.151191 0.202262
vt 0.15004 0.231341
vt 0.139906 0.201495
vt 0.138963 0.230575
vt 0.128621 0.200882
vt 0.127882 0.229964
vt 0.117337 0.200419
vt 0.116795 0.229502
vt 0.106059 0.200098
vt 0.1057 0.229186
vt 0.094788 0.199906
vt 0.094589 0.229007
vt 0.083527 0.199816
vt 0.083453 0.22896
vt 0.072274 0.199788
vt 0.072272 0.229036
vt 0.056435 0.199547
vt 0.061008 0.229228
vt 0.049628 0.228269
vt 0.049645 0.228748
vt 0.0408 0.200655
vt 0.038417 0.230758
vt 0.025062 0.203061
vt 0.027208 0.232128
vt 0.013869 0.204645
vt 0.016097 0.233606
vt 0.267372 0.569873
vt 0.251338 0.520813
vt 0.242937 0.563569
vt 0.242922 0.575964
vt 0.22266 0.586352
vt 0.233444 0.590719
vt 0.218467 0.60636
vt 0.229658 0.606887
vt 0.221246 0.626005
vt 0.284728 0.56619
vt 0.251338 0.520813
vt 0.280521 0.554169
vt 0.299316 0.577099
vt 0.308007 0.568866
vt 0.231663 0.622714
vt 0.230464 0.643053
vt 0.309515 0.590681
vt 0.319954 0.585833
vt 0.238874 0.636454
vt 0.244814 0.655556
vt 0.313647 0.606635
vt 0.324972 0.605995
vt 0.250244 0.646535
vt 0.262362 0.662128
vt 0.311514 0.622852
vt 0.322041 0.626167
vt 0.264239 0.651923
vt 0.280992 0.662128
vt 0.304365 0.636554
vt 0.312734 0.643191
vt 0.279131 0.651897
vt 0.298482 0.655576
vt 0.293096 0.646638
vt 0.160327 0.069089
vt 0.132201 0.057588
vt 0.055496 0.057588
vt 0.02737 0.069089
vt 0.165723 0.083054
vt 0.021975 0.083054
vt 0.157298 0.209917
vt 0.030399 0.209917
vt 0.021975 0.847186
vt 0.157299 0.802406
vt 0.165723 0.847186
vt 0.030399 0.802406
vt 0.165723 0.847186
vt 0.021975 0.847186
vt 0.126308 0.130724
vt 0.06488 0.130724
vt 0.06488 0.130724
vt 0.126308 0.130724
vt 0.06488 0.141125
vt 0.126308 0.141125
vt 0.06488 0.153754
vt 0.126308 0.153754
vt 0.126308 0.844803
vt 0.06488 0.844803
vt 0.06488 0.844803
vt 0.126308 0.844803
vt 0.06488 0.844803
vt 0.126308 0.844803
vt 0.06488 0.844803
vt 0.126308 0.844803
vt 0.06488 0.153754
vt 0.126308 0.153754
vt 0.06488 0.141125
vt 0.126308 0.141125
vt 0.06488 0.130724
vt 0.126308 0.130724
vt 0.02737 0.069089
vt 0.055496 0.057588
vt 0.132201 0.057588
vt 0.160327 0.069089
vt 0.021975 0.083054
vt 0.165723 0.083054
vt 0.165723 0.847186
vt 0.021975 0.847186
vt 0.021975 0.847186
vt 0.165723 0.847186
vt 0.51825 0.878747
vt 0.465378 0.892804
vt 0.51825 0.878747
vt 0.465378 0.892804
vt 0.366653 0.892804
vt 0.366653 0.892804
vt 0.313781 0.878747
vt 0.313781 0.878747
vt 0.51825 0.918575
vt 0.51825 0.878747
vt 0.51825 0.878747
vt 0.51825 0.918575
vt 0.465378 0.942997
vt 0.465378 0.942997
vt 0.465378 0.942997
vt 0.465378 0.942997
vt 0.465378 0.942997
vt 0.465378 0.942997
vt 0.366653 0.942997
vt 0.313781 0.878747
vt 0.313781 0.918575
vt 0.366653 0.892804
vt 0.465378 0.942997
vt 0.465378 0.892804
vt 0.51825 0.918575
vt 0.51825 0.878747
vt 0.465378 0.942997
vt 0.366653 0.942997
vt 0.465378 0.942997
vt 0.366653 0.942997
vt 0.465378 0.942997
vt 0.51825 0.878747
vt 0.51825 0.918575
vt 0.465378 0.892804
vt 0.366653 0.942997
vt 0.366653 0.892804
vt 0.313781 0.918575
vt 0.313781 0.878747
vt 0.366653 0.942997
vt 0.465378 0.942997
vt 0.366653 0.942997
vt 0.465378 0.942997
vt 0.313781 0.918575
vt 0.313781 0.878747
vt 0.313781 0.878747
vt 0.313781 0.918575
vt 0.366653 0.942997
vt 0.366653 0.942997
vt 0.366653 0.942997
vt 0.366653 0.942997
vt 0.366653 0.942997
vt 0.366653 0.942997
vt 0.366653 0.942997
vt 0.366653 0.942997
vt 0.465378 0.942997
vt 0.465378 0.942997
vn -0.4058206 0.9137748 0.01803379
vn 0 0.999675 0.02549047
vn 0 0.999661 0.02603774
vn -0.3825463 0.9235688 0.02605765
vn 0 0.9997628 0.02178052
vn -0.7026021 0.711408 0.01578209
vn -0.3825833 0.923664 0.02178855
vn -0.7068558 0.7068769 0.02607487
vn -0.9236353 0.3825794 0.02304243
vn -0.7069314 0.7069463 0.0217962
vn -0.923568 0.3825462 0.02608747
vn -0.9998558 -0.006217788 0.01580278
vn -0.9236652 0.3825799 0.021801
vn -0.9996595 0 0.02609203
vn -0.9330934 -0.3591799 0.01806959
vn -0.9997624 0 0.02180235
vn -0.923568 -0.3825462 0.02608747
vn -0.706871 -0.7068813 0.02554038
vn -0.9236652 -0.38258 0.02180099
vn -0.7068558 -0.7068769 0.02607487
vn -0.3825654 -0.9235759 0.02551807
vn -0.7069314 -0.7069463 0.0217962
vn -0.3825463 -0.9235688 0.02605764
vn 0 -0.999675 0.02549047
vn -0.3825832 -0.923664 0.02178856
vn 0 -0.999661 0.02603774
vn 0.3825473 -0.9235851 0.02546198
vn 0 -0.9997628 0.02178053
vn 0.3825539 -0.9235668 0.02601731
vn 0.706874 -0.706882 0.02543774
vn 0.3825923 -0.9236607 0.02177389
vn 0.7068694 -0.7068661 0.02600017
vn 0.9235825 -0.3825559 0.02542349
vn 0.7069404 -0.706938 0.02176853
vn 0.9235703 -0.3825473 0.02598801
vn 0.9996768 0 0.02541965
vn 0.9236621 -0.3825894 0.02176309
vn 0.9996624 0 0.0259835
vn 0.9235825 0.3825559 0.02542349
vn 0.9997632 0 0.02176057
vn 0.9235703 0.3825473 0.02598801
vn 0.706874 0.706882 0.02543775
vn 0.9236621 0.3825894 0.02176309
vn 0.7068695 0.7068661 0.02600017
vn 0.3825473 0.9235851 0.02546198
vn 0.7069404 0.706938 0.02176853
vn 0.3825539 0.9235668 0.02601731
vn 0 0.999675 0.02549047
vn 0.3825923 0.9236607 0.02177388
vn 0 0.999661 0.02603774
vn 0 0.9997628 0.02178052
vn 0 0.999675 0.02549047
vn 0 0.9999509 0.009915556
vn 0.3826622 0.9238352 0.009915418
vn 0.3825473 0.9235851 0.02546198
vn 0.7070711 0.707073 0.009914861
vn 0.706874 0.706882 0.02543775
vn 0.9238335 0.3826661 0.009918208
vn 0.9235825 0.3825559 0.02542349
vn 0.9999508 0 0.009922665
vn 0.9996768 0 0.02541965
vn 0.9238335 -0.3826661 0.009918199
vn 0.9235825 -0.3825559 0.02542349
vn 0.7070711 -0.707073 0.009914856
vn 0.706874 -0.706882 0.02543774
vn 0.3826622 -0.9238352 0.009915451
vn 0.3825473 -0.9235851 0.02546198
vn 0 -0.9999509 0.009915615
vn 0 -0.999675 0.02549047
vn -0.3826678 -0.9238327 0.009920674
vn -0.3825654 -0.9235759 0.02551807
vn -0.7070664 -0.7070775 0.009922622
vn -0.706871 -0.7068813 0.02554038
vn -0.950648 -0.3100447 -0.01186432
vn -0.9330934 -0.3591799 0.01806959
vn -0.937417 0.2751706 -0.2133788
vn -0.9998558 -0.006217788 0.01580278
vn -0.906432 0.4204934 -0.03957934
vn -0.9236353 0.3825794 0.02304243
vn -0.660992 0.7498679 -0.02806615
vn -0.7026021 0.711408 0.01578209
vn -0.4529769 0.8914433 -0.01185929
vn -0.4058206 0.9137748 0.01803379
vn 0 0.9999509 0.009915556
vn 0 0.999675 0.02549047
vn -0.699622 0.2624484 -0.6645674
vn -0.906432 0.4204934 -0.03957934
vn -0.937417 0.2751706 -0.2133788
vn -0.1943426 0.5229831 -0.8298913
vn 0 0 -1
vn 0 0 -1
vn 0 0 -1
vn 0 0 -1
vn 0 0 -1
vn -0.2798389 -0.2379687 -0.9300867
vn -0.711486 -0.6050315 -0.3573858
vn -0.6633645 -0.5641101 -0.4916576
vn 0 0 -1
vn 0 0 -1
vn 0 0 -1
vn 0 0 -1
vn 0 0 -1
vn 0 0 -1
vn 0 0 -1
vn 0 0 -1
vn 0 0 -1
vn 0 0 -1
vn 0 0 -1
vn 0 0 -1
vn 0 0 -1
vn 0 0 -1
vn 0 0 -1
vn 0 0 -1
vn 0 0 -1
vn 0 0 -1
vn 0 0 -1
vn 0 0 -1
vn 0 0 -1
vn 0 -1 0
vn 0 -1 0
vn 0 -1 0
vn 0 -1 0
vn -0.9824979 -0.1841625 0.02796469
vn 0.9824979 -0.1841625 0.02796469
vn -0.1471782 -0.9889899 0.01540839
vn 0.1471782 -0.9889899 0.01540839
vn 0.9799208 -0.1958401 -0.03744377
vn -0.1473858 -0.9889624 -0.0151956
vn -0.9799208 -0.1958401 -0.03744377
vn 0.1473858 -0.9889624 -0.0151956
vn 0 -1 0
vn 0 -1 0
vn -0.1432726 0 0.9896833
vn 0.1432726 0 0.9896833
vn -0.1432726 0 0.9896833
vn 0.1432726 0 0.9896833
vn 0.7079602 0 0.7062523
vn 0.7079602 0 0.7062523
vn 0.9824979 -0.1841625 0.02796469
vn 0.9999812 0 0.006149128
vn 0.9998696 0 -0.01615112
vn 0.9799208 -0.1958401 -0.03744377
vn 0.2134564 0 -0.9769526
vn 0.2134564 0 -0.9769526
vn -0.2134564 0 -0.9769526
vn -0.2134564 0 -0.9769526
vn -0.9799208 -0.1958401 -0.03744377
vn -0.9998696 0 -0.01615112
vn -0.9824979 -0.1841625 0.02796469
vn -0.9999812 0 0.006149128
vn -0.7079602 0 0.7062523
vn -0.7079602 0 0.7062523
vn -0.1432726 0 0.9896833
vn -0.1432726 0 0.9896833
vn 0 1 0
vn 0 1 0
vn 0 1 0
vn 0 1 0
vn 0 1 0
vn 0 1 0
vn 0 1 0
vn 0 1 0
vn 0 1 0
vn 0 1 0
vn -0.1855688 0 -0.9826313
vn -0.04841495 0 -0.9988273
vn -0.1855688 0 -0.9826313
vn -0.04841513 0 -0.9988273
vn 0.04841495 0 -0.9988273
vn 0.04841513 0 -0.9988273
vn 0.1855688 0 -0.9826313
vn 0.1855688 0 -0.9826313
vn 0.5480444 0 0.8364491
vn 1 0 0
vn 1 0 0
vn 0.5480437 0 0.8364496
vn 0.8817475 0 0.4717217
vn 0.8817466 0 0.4717232
vn 0.9967236 0 0.08088317
vn 0.9967236 0 0.08088264
vn 0.9651427 0 0.2617242
vn 0.9651427 0 0.2617241
vn -0.03730547 -0.9993039 0
vn -0.2670362 -0.9636865 0
vn -0.2670362 -0.9636865 0
vn -0.09616324 -0.9953655 0
vn 0.03730547 -0.9993039 0
vn 0.09616324 -0.9953655 0
vn 0.2670362 -0.9636865 0
vn 0.2670362 -0.9636865 0
vn 0 -0.9986845 0.05127753
vn 0 -0.9986845 0.05127753
vn 0 -0.9842255 0.1769186
vn 0 -0.9842255 0.1769186
vn 0.03730448 0.9993039 0
vn 0.2670297 0.9636883 0
vn 0.2670297 0.9636883 0
vn 0.09616075 0.9953657 0
vn -0.03730448 0.9993039 0
vn -0.09616075 0.9953657 0
vn -0.2670297 0.9636883 0
vn -0.2670297 0.9636883 0
vn 0 0.9986846 0.05127354
vn 0 0.9986846 0.05127354
vn 0 0.9842279 0.1769053
vn 0 0.9842279 0.1769053
vn -0.5480437 0 0.8364497
vn -1 0 0
vn -1 0 0
vn -0.5480444 0 0.8364491
vn -0.8817466 0 0.4717232
vn -0.8817475 0 0.4717217
vn -0.9967236 0 0.08088264
vn -0.9967236 0 0.08088317
vn -0.9651427 0 0.2617241
vn -0.9651427 0 0.2617242
vn 0 0 1
vn 0 0 1
vn 0 0 1
vn 0 0 1
g AlphaBat_0
f 3/3/3 2/2/2 1/1/1
f 4/4/4 3/3/3 1/1/1
f 5/5/5 3/3/3 4/4/4
f 4/4/4 1/1/1 6/6/6
f 7/7/7 5/5/5 4/4/4
f 8/8/8 4/4/4 6/6/6
f 7/7/7 4/4/4 8/8/8
f 8/8/8 6/6/6 9/9/9
f 10/10/10 7/7/7 8/8/8
f 11/11/11 8/8/8 9/9/9
f 10/10/10 8/8/8 11/11/11
f 11/11/11 9/9/9 12/12/12
f 13/13/13 10/10/10 11/11/11
f 14/14/14 11/11/11 12/12/12
f 13/13/13 11/11/11 14/14/14
f 14/14/14 12/12/12 15/15/15
f 16/16/16 13/13/13 14/14/14
f 17/17/17 14/14/14 15/15/15
f 16/16/16 14/14/14 17/17/17
f 17/17/17 15/15/15 18/18/18
f 19/19/19 16/16/16 17/17/17
f 20/20/20 17/17/17 18/18/18
f 19/19/19 17/17/17 20/20/20
f 20/20/20 18/18/18 21/21/21
f 22/22/22 19/19/19 20/20/20
f 23/23/23 20/20/20 21/21/21
f 22/22/22 20/20/20 23/23/23
f 23/23/23 21/21/21 24/24/24
f 25/25/25 22/22/22 23/23/23
f 26/26/26 23/23/23 24/24/24
f 25/25/25 23/23/23 26/26/26
f 26/26/26 24/24/24 27/27/27
f 28/28/28 25/25/25 26/26/26
f 29/29/29 26/26/26 27/27/27
f 28/28/28 26/26/26 29/29/29
f 29/29/29 27/27/27 30/30/30
f 31/31/31 28/28/28 29/29/29
f 32/32/32 29/29/29 30/30/30
f 31/31/31 29/29/29 32/32/32
f 32/32/32 30/30/30 33/33/33
f 34/34/34 31/31/31 32/32/32
f 35/35/35 32/32/32 33/33/33
f 34/34/34 32/32/32 35/35/35
f 35/35/35 33/33/33 36/36/36
f 37/37/37 34/34/34 35/35/35
f 38/38/38 35/35/35 36/36/36
f 37/37/37 35/35/35 38/38/38
f 38/38/38 36/36/36 39/39/39
f 40/40/40 37/37/37 38/38/38
f 41/41/41 38/38/38 39/39/39
f 40/40/40 38/38/38 41/41/41
f 41/41/41 39/39/39 42/42/42
f 43/43/43 40/40/40 41/41/41
f 44/44/44 41/41/41 42/42/42
f 43/43/43 41/41/41 44/44/44
f 44/44/44 42/42/42 45/45/45
f 46/46/46 43/43/43 44/44/44
f 47/47/47 44/44/44 45/45/45
f 46/46/46 44/44/44 47/47/47
f 47/47/47 45/45/45 48/48/48
f 49/49/49 46/46/46 47/47/47
f 50/50/50 47/47/47 48/48/48
f 49/49/49 47/47/47 50/50/50
f 51/51/51 49/49/49 50/50/50
f 54/54/54 53/53/53 52/52/52
f 55/55/55 54/54/54 52/52/52
f 56/56/56 54/54/54 55/55/55
f 57/57/57 56/56/56 55/55/55
f 58/58/58 56/56/56 57/57/57
f 59/59/59 58/58/58 57/57/57
f 60/60/60 58/58/58 59/59/59
f 61/61/61 60/60/60 59/59/59
f 62/62/62 60/60/60 61/61/61
f 63/63/63 62/62/62 61/61/61
f 64/64/64 62/62/62 63/63/63
f 65/65/65 64/64/64 63/63/63
f 66/66/66 64/64/64 65/65/65
f 67/67/67 66/66/66 65/65/65
f 68/68/68 66/66/66 67/67/67
f 69/69/69 68/68/68 67/67/67
f 70/70/70 68/68/68 69/69/69
f 71/71/71 70/70/70 69/69/69
f 72/72/72 70/70/70 71/71/71
f 73/73/73 72/72/72 71/71/71
f 74/74/74 72/72/72 73/73/73
f 75/75/75 74/74/74 73/73/73
f 76/76/76 74/74/74 75/75/75
f 77/77/77 76/76/76 75/75/75
f 78/78/78 76/76/76 77/77/77
f 79/79/79 78/78/78 77/77/77
f 80/80/80 78/78/78 79/79/79
f 81/81/81 80/80/80 79/79/79
f 82/82/82 80/80/80 81/81/81
f 83/83/83 82/82/82 81/81/81
f 84/84/84 82/82/82 83/83/83
f 85/85/85 84/84/84 83/83/83
f 88/88/88 87/87/87 86/86/86
f 89/89/89 88/88/88 86/86/86
f 90/90/90 88/88/88 89/89/89
f 91/91/91 90/90/90 89/89/89
f 91/91/91 89/89/89 86/86/86
f 92/92/92 90/90/90 91/91/91
f 93/93/93 92/92/92 91/91/91
f 93/93/93 91/91/91 86/86/86
f 94/94/94 92/92/92 93/93/93
f 93/93/93 86/86/86 95/95/95
f 86/86/86 96/96/96 95/95/95
f 96/96/96 97/97/97 95/95/95
f 95/95/95 97/97/97 98/98/98
f 93/93/93 95/95/95 98/98/98
f 97/97/97 99/99/99 98/98/98
f 100/100/100 94/94/94 93/93/93
f 100/100/100 93/93/93 98/98/98
f 101/101/101 94/94/94 100/100/100
f 98/98/98 99/99/99 102/102/102
f 100/100/100 98/98/98 102/102/102
f 99/99/99 103/103/103 102/102/102
f 104/104/104 101/101/101 100/100/100
f 104/104/104 100/100/100 102/102/102
f 105/105/105 101/101/101 104/104/104
f 102/102/102 103/103/103 106/106/106
f 104/104/104 102/102/102 106/106/106
f 103/103/103 107/107/107 106/106/106
f 108/108/108 105/105/105 104/104/104
f 108/108/108 104/104/104 106/106/106
f 109/109/109 105/105/105 108/108/108
f 106/106/106 107/107/107 110/110/110
f 108/108/108 106/106/106 110/110/110
f 107/107/107 111/111/111 110/110/110
f 112/112/112 109/109/109 108/108/108
f 112/112/112 108/108/108 110/110/110
f 113/113/113 109/109/109 112/112/112
f 110/110/110 111/111/111 114/114/114
f 112/112/112 110/110/110 114/114/114
f 111/111/111 115/115/115 114/114/114
f 116/116/116 113/113/113 112/112/112
f 116/116/116 112/112/112 114/114/114
f 117/117/117 113/113/113 116/116/116
f 115/115/115 117/117/117 118/118/118
f 114/114/114 115/115/115 118/118/118
f 114/114/114 118/118/118 116/116/116
f 118/118/118 117/117/117 116/116/116
f 121/121/121 120/120/120 119/119/119
f 122/122/122 121/121/121 119/119/119
f 122/122/122 119/119/119 123/123/123
f 124/124/124 122/122/122 123/123/123
f 123/123/123 125/125/125 124/124/124
f 125/125/125 126/126/126 124/124/124
f 124/124/124 126/126/126 127/127/127
f 128/128/128 125/125/125 123/123/123
f 129/129/129 128/128/128 123/123/123
f 130/130/130 126/126/126 125/125/125
f 128/128/128 130/130/130 125/125/125
f 130/130/130 128/128/128 129/129/129
f 126/126/126 130/130/130 127/127/127
f 127/127/127 130/130/130 129/129/129
f 129/129/129 131/131/131 127/127/127
f 131/131/131 132/132/132 127/127/127
f 135/135/135 134/134/134 133/133/133
f 134/134/134 136/136/136 133/133/133
f 136/136/136 134/134/134 137/137/137
f 138/138/138 136/136/136 137/137/137
f 138/138/138 137/137/137 139/139/139
f 140/140/140 138/138/138 139/139/139
f 140/140/140 139/139/139 141/141/141
f 139/139/139 142/142/142 141/141/141
f 142/142/142 143/143/143 141/141/141
f 143/143/143 144/144/144 141/141/141
f 144/144/144 143/143/143 145/145/145
f 146/146/146 144/144/144 145/145/145
f 146/146/146 145/145/145 147/147/147
f 148/148/148 146/146/146 147/147/147
f 147/147/147 149/149/149 148/148/148
f 149/149/149 150/150/150 148/148/148
f 149/149/149 151/151/151 150/150/150
f 151/151/151 152/152/152 150/150/150
f 151/151/151 153/153/153 152/152/152
f 153/153/153 154/154/154 152/152/152
f 157/157/157 156/156/156 155/155/155
f 158/158/158 157/157/157 155/155/155
f 158/158/158 155/155/155 159/159/159
f 160/160/160 158/158/158 159/159/159
f 160/160/160 159/159/159 161/161/161
f 159/159/159 162/162/162 161/161/161
f 162/162/162 163/163/163 161/161/161
f 163/163/163 164/164/164 161/161/161
f 167/167/167 166/166/166 165/165/165
f 166/166/166 168/168/168 165/165/165
f 168/168/168 166/166/166 169/169/169
f 170/170/170 168/168/168 169/169/169
f 170/170/170 169/169/169 171/171/171
f 172/172/172 170/170/170 171/171/171
f 175/175/175 174/174/174 173/173/173
f 176/176/176 175/175/175 173/173/173
f 177/177/177 176/176/176 173/173/173
f 178/178/178 177/177/177 173/173/173
f 178/178/178 179/179/179 177/177/177
f 179/179/179 180/180/180 177/177/177
f 179/179/179 181/181/181 180/180/180
f 181/181/181 182/182/182 180/180/180
f 185/185/185 184/184/184 183/183/183
f 184/184/184 186/186/186 183/183/183
f 183/183/183 186/186/186 187/187/187
f 186/186/186 188/188/188 187/187/187
f 187/187/187 188/188/188 189/189/189
f 188/188/188 190/190/190 189/189/189
f 187/187/187 191/191/191 183/183/183
f 191/191/191 192/192/192 183/183/183
f 191/191/191 193/193/193 192/192/192
f 193/193/193 194/194/194 192/192/192
f 197/197/197 196/196/196 195/195/195
f 196/196/196 198/198/198 195/195/195
f 195/195/195 198/198/198 199/199/199
f 198/198/198 200/200/200 199/199/199
f 199/199/199 200/200/200 201/201/201
f 200/200/200 202/202/202 201/201/201
f 199/199/199 203/203/203 195/195/195
f 203/203/203 204/204/204 195/195/195
f 203/203/203 205/205/205 204/204/204
f 205/205/205 206/206/206 204/204/204
f 209/209/209 208/208/208 207/207/207
f 210/210/210 209/209/209 207/207/207
f 211/211/211 210/210/210 207/207/207
f 212/212/212 211/211/211 207/207/207
f 212/212/212 213/213/213 211/211/211
f 213/213/213 214/214/214 211/211/211
f 213/213/213 215/215/215 214/214/214
f 215/215/215 216/216/216 214/214/214
f 219/219/219 218/218/218 217/217/217
f 220/220/220 219/219/219 217/217/217
